<?xml version="1.0" standalone="no"?>
<!DOCTYPE svg PUBLIC "-//W3C//DTD SVG 20010904//EN"
 "http://www.w3.org/TR/2001/REC-SVG-20010904/DTD/svg10.dtd">
<svg version="1.0" xmlns="http://www.w3.org/2000/svg"
 width="1080.000000pt" height="1080.000000pt" viewBox="0 0 1080.000000 1080.000000"
 preserveAspectRatio="xMidYMid meet">

<g transform="translate(0.000000,1080.000000) scale(0.100000,-0.100000)"
fill="#000000" stroke="none">
<path d="M5410 9570 c-129 -75 -383 -223 -565 -327 -364 -210 -1733 -1001
-2278 -1315 l-347 -201 2 -1995 3 -1994 675 -390 c635 -366 832 -480 1380
-795 471 -272 952 -549 1140 -658 108 -62 207 -119 222 -126 25 -11 37 -6 165
68 76 44 244 141 373 215 129 75 350 202 490 283 140 81 361 208 490 282 129
75 323 186 430 248 107 62 341 197 520 300 179 103 424 245 545 315 121 70
273 158 338 195 l117 67 0 1992 0 1992 -487 281 c-269 155 -661 381 -873 504
-2170 1253 -2075 1199 -2091 1198 -8 -1 -120 -63 -249 -139z m555 -695 c315
-182 444 -256 1520 -877 501 -289 918 -529 928 -535 15 -7 -22 -32 -205 -138
-123 -70 -339 -195 -480 -277 -141 -81 -261 -148 -266 -148 -6 0 -66 32 -134
71 -67 40 -238 138 -378 219 -140 81 -446 257 -680 392 -1300 750 -1541 888
-1552 888 -11 0 -535 -296 -573 -324 -22 -16 -90 26 850 -516 160 -92 333
-192 385 -222 52 -30 230 -133 395 -228 165 -96 354 -205 420 -243 334 -193
527 -305 592 -341 40 -23 73 -43 73 -46 0 -3 -62 -40 -138 -83 -75 -42 -200
-114 -277 -158 -553 -321 -781 -449 -791 -445 -11 4 -2536 1460 -2687 1549
-37 22 -66 41 -65 42 2 2 383 222 848 490 998 575 1283 740 1405 811 50 29
184 107 299 173 l210 120 30 -18 c17 -10 139 -81 271 -156z m2565 -3207 l0
-1593 -173 -99 c-94 -55 -266 -154 -382 -221 -115 -67 -361 -208 -545 -315
-184 -106 -465 -268 -625 -360 -800 -462 -1009 -582 -1022 -587 -11 -4 -13
258 -13 1588 l0 1594 593 341 592 342 5 -354 5 -353 105 61 c273 159 321 188
402 234 l88 49 0 356 0 357 383 220 c210 121 425 245 477 276 52 31 98 56 103
56 4 0 7 -717 7 -1592z"/>
</g>
</svg>
